# xmcd
#
# Track frame offsets:
#	150
#	14535
#	28884
#	40101
#	59770
#	70016
#	88341
#	101583
#	120955
#	135111
#	150691
#	167914
#	185700
#	200819
#	218325
#	233336
#
# Disc length: 3309 seconds
# Revision: 0
# Processed by: cddbd v1.5.2PL0 Copyright (c) Steve Scherf et al.
# Submitted via: dBpowerAMP V12.0
#
DISCID=d70ceb10
DTITLE=Johnny Bluth - Hard Luck Town
DYEAR=2018
DGENRE=Country
TTITLE0=Trouble Bound
TTITLE1=Hard Luck Town
TTITLE2=The Wind
TTITLE3=Running Away
TTITLE4=Mad Rush
TTITLE5=I Don't Wanna Go Home
TTITLE6=Under A Blanket Of Stars
TTITLE7=Heraldos De La Muerte
TTITLE8=Let's Ride
TTITLE9=Down At The Crossroad
TTITLE10=Ghost Of Love
TTITLE11=Lonesome Road
TTITLE12=Drifter
TTITLE13=Leaving On A Fast Train
TTITLE14=Wayfaring Stranger
TTITLE15=Glory Bound Express
EXTD=
EXTT0=
EXTT1=
EXTT2=
EXTT3=
EXTT4=
EXTT5=
EXTT6=
EXTT7=
EXTT8=
EXTT9=
EXTT10=
EXTT11=
EXTT12=
EXTT13=
EXTT14=
EXTT15=
PLAYORDER=
